<svg xmlns="http://www.w3.org/2000/svg" xmlns:xlink="http://www.w3.org/1999/xlink" width="24" height="24" viewBox="0 0 24 24">
  <defs>
    <path id="icon-grid@2x-a" d="M5,3 L8,3 L8,3 C9.1045695,3 10,3.8954305 10,5 L10,8 L10,8 C10,9.1045695 9.1045695,10 8,10 L5,10 L5,10 C3.8954305,10 3,9.1045695 3,8 L3,5 L3,5 C3,3.8954305 3.8954305,3 5,3 L5,3 Z M16,3 L19,3 C20.1045695,3 21,3.8954305 21,5 L21,8 L21,8 C21,9.1045695 20.1045695,10 19,10 L16,10 L16,10 C14.8954305,10 14,9.1045695 14,8 L14,5 L14,5 C14,3.8954305 14.8954305,3 16,3 Z M16,14 L19,14 C20.1045695,14 21,14.8954305 21,16 L21,19 L21,19 C21,20.1045695 20.1045695,21 19,21 L16,21 C14.8954305,21 14,20.1045695 14,19 L14,16 C14,14.8954305 14.8954305,14 16,14 Z M5,14 L8,14 L8,14 C9.1045695,14 10,14.8954305 10,16 L10,19 L10,19 C10,20.1045695 9.1045695,21 8,21 L5,21 C3.8954305,21 3,20.1045695 3,19 L3,16 C3,14.8954305 3.8954305,14 5,14 L5,14 Z"/>
  </defs>
  <g fill="none" fill-rule="evenodd">
    <polygon points="0 0 24 0 24 24 0 24"/>
    <mask id="icon-grid@2x-b" fill="#fff">
      <use xlink:href="#icon-grid@2x-a"/>
    </mask>
    <use fill="#D8D8D8" xlink:href="#icon-grid@2x-a"/>
    <path stroke="#979797" d="M5,3.5 C4.17157288,3.5 3.5,4.17157288 3.5,5 L3.5,8 C3.5,8.82842712 4.17157288,9.5 5,9.5 L8,9.5 C8.82842712,9.5 9.5,8.82842712 9.5,8 L9.5,5 C9.5,4.17157288 8.82842712,3.5 8,3.5 L5,3.5 Z M16,3.5 C15.1715729,3.5 14.5,4.17157288 14.5,5 L14.5,8 C14.5,8.82842712 15.1715729,9.5 16,9.5 L19,9.5 C19.8284271,9.5 20.5,8.82842712 20.5,8 L20.5,5 C20.5,4.17157288 19.8284271,3.5 19,3.5 L16,3.5 Z M16,14.5 C15.1715729,14.5 14.5,15.1715729 14.5,16 L14.5,19 C14.5,19.8284271 15.1715729,20.5 16,20.5 L19,20.5 C19.8284271,20.5 20.5,19.8284271 20.5,19 L20.5,16 C20.5,15.1715729 19.8284271,14.5 19,14.5 L16,14.5 Z M5,14.5 C4.17157288,14.5 3.5,15.1715729 3.5,16 L3.5,19 C3.5,19.8284271 4.17157288,20.5 5,20.5 L8,20.5 C8.82842712,20.5 9.5,19.8284271 9.5,19 L9.5,16 C9.5,15.1715729 8.82842712,14.5 8,14.5 L5,14.5 Z"/>
    <g fill="#B3B9C4" mask="url(#icon-grid@2x-b)">
      <rect width="24" height="24"/>
    </g>
  </g>
</svg>
