<svg xmlns="http://www.w3.org/2000/svg" xmlns:xlink="http://www.w3.org/1999/xlink" width="24" height="24" viewBox="0 0 24 24">
  <defs>
    <path id="icon-list@2x-a" d="M4.5,3 L19.5,3 C20.3284271,3 21,3.67157288 21,4.5 L21,4.5 C21,5.32842712 20.3284271,6 19.5,6 L4.5,6 C3.67157288,6 3,5.32842712 3,4.5 L3,4.5 L3,4.5 C3,3.67157288 3.67157288,3 4.5,3 L4.5,3 Z M4.5,8 L19.5,8 C20.3284271,8 21,8.67157288 21,9.5 C21,10.3284271 20.3284271,11 19.5,11 L4.5,11 C3.67157288,11 3,10.3284271 3,9.5 C3,8.67157288 3.67157288,8 4.5,8 L4.5,8 Z M4.5,13 L19.5,13 C20.3284271,13 21,13.6715729 21,14.5 C21,15.3284271 20.3284271,16 19.5,16 L4.5,16 C3.67157288,16 3,15.3284271 3,14.5 C3,13.6715729 3.67157288,13 4.5,13 L4.5,13 Z M4.5,18 L19.5,18 C20.3284271,18 21,18.6715729 21,19.5 C21,20.3284271 20.3284271,21 19.5,21 L4.5,21 C3.67157288,21 3,20.3284271 3,19.5 C3,18.6715729 3.67157288,18 4.5,18 L4.5,18 Z"/>
  </defs>
  <g fill="none" fill-rule="evenodd">
    <polygon points="0 0 24 0 24 24 0 24"/>
    <mask id="icon-list@2x-b" fill="#fff">
      <use xlink:href="#icon-list@2x-a"/>
    </mask>
    <use fill="#D8D8D8" xlink:href="#icon-list@2x-a"/>
    <path stroke="#979797" d="M4.5,3.5 C3.94771525,3.5 3.5,3.94771525 3.5,4.5 C3.5,5.05228475 3.94771525,5.5 4.5,5.5 L19.5,5.5 C20.0522847,5.5 20.5,5.05228475 20.5,4.5 C20.5,3.94771525 20.0522847,3.5 19.5,3.5 L4.5,3.5 Z M4.5,8.5 C3.94771525,8.5 3.5,8.94771525 3.5,9.5 C3.5,10.0522847 3.94771525,10.5 4.5,10.5 L19.5,10.5 C20.0522847,10.5 20.5,10.0522847 20.5,9.5 C20.5,8.94771525 20.0522847,8.5 19.5,8.5 L4.5,8.5 Z M4.5,13.5 C3.94771525,13.5 3.5,13.9477153 3.5,14.5 C3.5,15.0522847 3.94771525,15.5 4.5,15.5 L19.5,15.5 C20.0522847,15.5 20.5,15.0522847 20.5,14.5 C20.5,13.9477153 20.0522847,13.5 19.5,13.5 L4.5,13.5 Z M4.5,18.5 C3.94771525,18.5 3.5,18.9477153 3.5,19.5 C3.5,20.0522847 3.94771525,20.5 4.5,20.5 L19.5,20.5 C20.0522847,20.5 20.5,20.0522847 20.5,19.5 C20.5,18.9477153 20.0522847,18.5 19.5,18.5 L4.5,18.5 Z"/>
    <g fill="#B3B9C4" mask="url(#icon-list@2x-b)">
      <rect width="24" height="24"/>
    </g>
  </g>
</svg>
